<svg width="32" height="32" viewBox="0 0 32 32" fill="none" xmlns="http://www.w3.org/2000/svg">
  <!-- 背景圓形漸變 -->
  <defs>
    <linearGradient id="bgGradient" x1="0%" y1="0%" x2="100%" y2="100%">
      <stop offset="0%" style="stop-color:#667eea;stop-opacity:1" />
      <stop offset="50%" style="stop-color:#764ba2;stop-opacity:1" />
      <stop offset="100%" style="stop-color:#f093fb;stop-opacity:1" />
    </linearGradient>
    <linearGradient id="iconGradient" x1="0%" y1="0%" x2="100%" y2="100%">
      <stop offset="0%" style="stop-color:#ffffff;stop-opacity:0.9" />
      <stop offset="100%" style="stop-color:#ffffff;stop-opacity:0.7" />
    </linearGradient>
    <filter id="shadow" x="-20%" y="-20%" width="140%" height="140%">
      <feDropShadow dx="0" dy="2" stdDeviation="3" flood-color="#000000" flood-opacity="0.2"/>
    </filter>
  </defs>
  
  <!-- 主背景圓形 -->
  <circle cx="16" cy="16" r="15" fill="url(#bgGradient)" filter="url(#shadow)"/>
  
  <!-- 內層光暈效果 -->
  <circle cx="16" cy="16" r="13" fill="none" stroke="rgba(255,255,255,0.2)" stroke-width="1"/>
  
  <!-- 主圖標 - 位置標記與神秘符號結合 -->
  <g transform="translate(16,16)">
    <!-- 位置標記外形 -->
    <path d="M-6,-8 C-6,-11 -3,-14 0,-14 C3,-14 6,-11 6,-8 C6,-5 0,2 0,2 C0,2 -6,-5 -6,-8 Z" 
          fill="url(#iconGradient)" stroke="rgba(255,255,255,0.3)" stroke-width="0.5"/>
    
    <!-- 中心神秘符號 -->
    <circle cx="0" cy="-8" r="3" fill="rgba(255,255,255,0.9)"/>
    <circle cx="0" cy="-8" r="1.5" fill="url(#bgGradient)"/>
    
    <!-- 裝飾性光點 -->
    <circle cx="-3" cy="-6" r="0.8" fill="rgba(255,255,255,0.6)"/>
    <circle cx="3" cy="-6" r="0.8" fill="rgba(255,255,255,0.6)"/>
    <circle cx="0" cy="-4" r="0.5" fill="rgba(255,255,255,0.4)"/>
    
    <!-- 底部裝飾線條 -->
    <path d="M-4,4 Q0,6 4,4" stroke="rgba(255,255,255,0.5)" stroke-width="1" fill="none"/>
    <path d="M-2,6 Q0,7 2,6" stroke="rgba(255,255,255,0.3)" stroke-width="0.8" fill="none"/>
  </g>
  
  <!-- 外圈裝飾 -->
  <circle cx="16" cy="16" r="15" fill="none" stroke="rgba(255,255,255,0.1)" stroke-width="0.5"/>
</svg>